<svg xmlns="http://www.w3.org/2000/svg" width="256" height="256" viewBox="0 0 256 256">
<rect x="8" y="8" width="240" height="240" rx="48" fill="#233e37"/>
<path d="M35 129 95 54l35 42 29-33 64 79" fill="#839289"/>
<path d="m76 78 19-24 24 29-20-8-10 12" fill="#dce1d5"/>
<ellipse cx="128" cy="157" rx="88" ry="56" fill="#121f1b"/>
<ellipse cx="128" cy="149" rx="84" ry="51" fill="#687645" stroke="#a3a570" stroke-width="5"/>
<ellipse cx="128" cy="151" rx="57" ry="32" fill="#34462b"/>
<path d="M62 127q30-32 75-26M69 136q29-31 69-26M77 144q29-27 61-25" fill="none" stroke="#9a9c61" stroke-width="4"/>
<path d="m123 153 11-8 13 8-3 13-15 3-10-8m33-20 8-3 7 6-3 8-10-1" fill="#e9bc49"/>
</svg>
